<?xml version="1.0" standalone="no"?>
<!DOCTYPE svg PUBLIC "-//W3C//DTD SVG 20010904//EN"
 "http://www.w3.org/TR/2001/REC-SVG-20010904/DTD/svg10.dtd">
<svg version="1.0" xmlns="http://www.w3.org/2000/svg"
 width="323.000000pt" height="130.000000pt" viewBox="0 0 323.000000 130.000000"
 preserveAspectRatio="xMidYMid meet">

<g transform="translate(0.000000,130.000000) scale(0.100000,-0.100000)"
fill="#000000" stroke="none">
<path d="M1436 1278 c-47 -10 -98 -47 -122 -87 -13 -21 -27 -31 -56 -35 -21
-4 -47 -15 -57 -25 -22 -22 -52 -21 -130 3 -66 19 -110 20 -176 2 -68 -18
-104 -38 -145 -80 -27 -29 -40 -35 -60 -31 -15 3 -33 -1 -45 -9 -11 -9 -35
-16 -52 -16 -22 0 -37 -7 -45 -20 -10 -15 -24 -20 -61 -20 -49 0 -94 -17 -116
-44 -8 -9 -24 -16 -38 -16 -13 0 -26 -7 -29 -15 -4 -9 -19 -15 -39 -15 -21 0
-45 -9 -63 -25 -17 -14 -34 -25 -39 -25 -22 0 -45 -39 -39 -65 5 -21 3 -25
-14 -25 -15 0 -20 -7 -20 -29 0 -16 4 -31 10 -33 13 -4 -27 -211 -43 -220 -13
-7 -16 -65 -4 -60 4 1 27 2 52 2 43 0 45 1 45 30 0 17 -4 30 -10 30 -5 0 -10
9 -10 20 0 28 55 29 63 1 3 -12 -1 -22 -10 -25 -15 -6 -15 -57 0 -56 4 0 54 0
112 0 l105 0 0 30 c0 17 -4 30 -10 30 -5 0 -10 23 -10 52 0 28 3 48 7 44 5 -4
20 -40 34 -79 l26 -72 47 -5 c26 -4 49 -4 51 -1 3 2 5 67 5 143 0 85 4 138 10
138 6 0 10 14 10 30 0 29 -1 30 -50 30 -46 0 -50 -2 -50 -24 0 -14 5 -28 10
-31 6 -3 10 -32 9 -63 l-1 -57 -30 88 c-29 84 -31 87 -60 87 -25 0 -28 3 -19
14 8 10 24 12 51 9 22 -3 46 -1 53 5 8 7 18 7 27 2 8 -6 25 -10 38 -10 13 0
34 -8 46 -17 l23 -18 -21 -28 c-30 -41 -31 -206 -2 -254 24 -39 65 -58 108
-49 18 4 50 7 71 6 l37 0 0 90 0 90 -55 0 c-54 0 -55 0 -55 -30 0 -16 5 -30
10 -30 15 0 12 -57 -4 -63 -27 -10 -36 17 -36 104 0 48 3 94 6 103 11 27 45
19 57 -14 10 -27 15 -30 58 -30 45 0 48 2 54 30 4 17 13 30 21 30 12 0 14 -19
12 -112 -2 -84 -6 -112 -15 -111 -8 2 -13 -8 -13 -27 l0 -30 65 0 c36 0 68 -1
73 -2 15 -6 13 52 -2 58 -22 8 -24 224 -2 224 7 0 16 -13 20 -30 4 -21 11 -30
26 -30 16 0 20 7 20 31 0 20 4 29 13 27 7 -3 25 -66 43 -144 l30 -139 45 0 44
0 28 135 c16 76 35 140 43 146 8 6 14 23 14 38 0 22 -4 26 -27 26 l-28 0 30
25 c17 13 33 24 38 25 4 0 7 -24 7 -54 0 -31 5 -56 11 -58 16 -5 -20 -208 -38
-215 -7 -3 -13 -18 -13 -34 0 -28 1 -29 55 -29 52 0 55 1 55 25 0 13 -7 28
-17 33 -26 15 -8 42 27 42 23 0 30 -4 30 -20 0 -11 -4 -20 -10 -20 -5 0 -10
-13 -10 -30 l0 -30 65 0 c63 0 65 1 65 25 0 14 -4 33 -9 43 -10 17 -51 242
-51 275 0 9 3 17 8 17 14 0 32 -54 32 -97 0 -37 3 -43 20 -43 15 0 22 9 27 30
3 17 12 30 19 30 21 0 20 -216 -1 -224 -8 -3 -15 -17 -15 -31 0 -25 1 -25 75
-25 72 0 75 1 75 24 0 13 -7 26 -15 30 -22 8 -22 226 -1 226 8 0 17 -14 21
-30 6 -25 11 -30 36 -30 24 0 32 6 40 30 6 16 17 30 25 30 12 0 14 -20 12
-112 -2 -84 -6 -112 -15 -111 -7 2 -13 -3 -13 -11 0 -8 -3 -21 -6 -29 -4 -13
8 -16 70 -19 l76 -3 0 33 c0 20 -4 31 -10 27 -6 -4 -10 35 -10 110 0 88 3 116
12 113 7 -3 15 -15 18 -29 4 -15 14 -25 28 -27 20 -3 22 1 22 48 0 32 4 49 10
45 6 -4 8 -10 5 -15 -3 -5 -1 -11 5 -15 13 -8 13 -235 0 -235 -5 0 -10 -11
-10 -25 l0 -25 100 0 c94 0 103 2 125 25 32 31 34 91 5 128 -17 21 -18 27 -6
36 37 31 25 119 -20 140 -14 6 -52 11 -84 11 -33 0 -60 4 -60 8 0 15 66 30 85
19 25 -14 95 -2 118 21 16 16 25 18 47 10 21 -7 36 -5 59 7 17 8 31 20 31 25
0 6 14 10 30 10 41 0 90 26 90 48 0 29 -21 42 -66 42 -24 0 -46 5 -49 10 -3 6
-19 10 -36 10 -19 0 -29 5 -29 15 0 26 -46 41 -83 27 -25 -10 -34 -9 -47 3 -9
8 -28 15 -42 15 -14 0 -31 7 -39 16 -9 11 -22 14 -41 10 -24 -5 -28 -2 -28 17
0 33 -35 84 -69 102 -54 28 -134 14 -170 -29 -15 -18 -61 -11 -74 11 -4 7 -16
13 -26 13 -10 0 -24 7 -32 16 -7 9 -21 13 -33 10 -16 -4 -27 3 -43 29 -25 37
-92 80 -138 87 -16 3 -48 1 -69 -4z m123 -28 c39 -19 91 -72 91 -92 0 -6 10
-8 24 -4 16 4 30 0 40 -9 8 -8 22 -15 31 -15 9 0 19 -9 22 -20 4 -14 11 -19
23 -15 9 3 23 -1 29 -9 11 -13 17 -10 43 19 51 59 126 59 185 0 25 -25 33 -41
33 -69 0 -33 2 -36 19 -26 29 15 52 12 58 -8 3 -14 12 -17 38 -14 30 4 35 1
41 -22 6 -24 8 -25 23 -12 40 36 101 28 101 -15 0 -15 6 -17 35 -12 25 4 36 2
40 -9 4 -10 15 -13 30 -10 35 6 75 -6 75 -23 0 -22 -45 -47 -77 -43 -19 2 -33
-4 -45 -18 -23 -29 -51 -35 -82 -19 -23 12 -27 12 -36 -4 -16 -32 -65 -46
-111 -32 -25 7 -45 8 -56 3 -9 -5 -24 -7 -34 -5 -13 4 -19 0 -19 -10 0 -24
-38 -40 -80 -33 -27 4 -41 2 -50 -9 -18 -21 -46 -19 -71 6 -15 15 -24 18 -32
10 -15 -15 -50 -14 -65 1 -9 9 -17 6 -37 -12 -17 -16 -36 -23 -58 -22 -147 7
-140 5 -162 37 -11 17 -26 30 -32 31 -29 2 -33 5 -33 19 0 14 -39 21 -95 17
-16 -2 -17 0 -5 7 8 6 12 13 8 16 -3 3 -35 -16 -70 -43 -65 -49 -143 -80 -174
-68 -9 3 -18 15 -21 26 -6 22 -18 26 -28 10 -8 -14 -48 -13 -63 2 -9 9 -16 8
-30 -5 -23 -21 -51 -22 -79 -2 -20 14 -23 14 -32 -3 -16 -29 -73 -52 -130 -52
-42 0 -57 5 -77 25 -13 13 -30 22 -37 19 -8 -3 -20 2 -27 11 -7 8 -26 15 -42
15 -16 0 -38 5 -48 10 -13 7 -27 6 -44 -2 -19 -8 -32 -8 -50 0 -20 9 -27 7
-47 -14 -26 -28 -55 -31 -87 -8 -24 17 -65 21 -100 10 -26 -9 -28 3 -7 44 18
35 69 64 99 56 15 -4 26 1 34 15 7 11 21 19 32 17 10 -2 33 10 50 27 28 27 38
30 94 30 54 0 65 3 72 20 6 13 19 20 39 21 17 0 42 8 57 18 21 14 31 15 48 6
12 -6 23 -10 24 -8 1 2 12 17 24 35 28 40 126 90 195 98 35 4 70 1 107 -10
119 -35 132 -35 157 -9 15 16 33 24 56 24 28 0 38 7 64 44 57 81 152 108 232
66z m-139 -490 c0 -11 -4 -20 -10 -20 -5 0 -10 9 -10 20 0 11 5 20 10 20 6 0
10 -9 10 -20z m-1136 -25 c16 -11 22 -22 19 -35 -3 -12 1 -22 11 -26 13 -5 16
-24 16 -114 0 -104 -8 -136 -30 -114 -5 5 -19 68 -30 139 -13 77 -28 135 -36
141 -8 6 -14 14 -14 18 0 12 41 6 64 -9z m930 -120 c-11 -68 -20 -71 -33 -9
-7 39 -8 60 -1 62 5 2 10 13 10 25 0 19 2 18 16 -8 10 -20 13 -42 8 -70z m968
30 c8 -19 8 -28 -2 -40 -21 -25 -30 -17 -30 25 0 45 15 52 32 15z m-2003 -62
c1 -17 -5 -23 -20 -23 -15 0 -19 5 -15 18 3 9 8 31 12 47 l8 30 7 -25 c4 -14
7 -35 8 -47z m1245 15 c6 -34 5 -38 -15 -38 -19 0 -21 4 -15 31 3 17 6 39 6
47 0 28 17 -1 24 -40z m762 -83 c9 -23 -5 -65 -21 -65 -11 0 -15 11 -15 40 0
29 4 40 15 40 9 0 18 -7 21 -15z"/>
<path d="M1356 1005 c4 -8 0 -23 -7 -33 -13 -15 -12 -16 4 -3 19 15 22 36 7
46 -6 3 -7 -1 -4 -10z"/>
<path d="M1765 910 c5 -8 2 -18 -9 -26 -16 -11 -16 -13 3 -19 38 -12 20 -36
-39 -53 -19 -6 -27 -11 -17 -11 51 -3 108 45 77 64 -6 4 -8 15 -5 25 3 10 0
22 -6 26 -8 5 -9 3 -4 -6z"/>
<path d="M2145 860 c-13 -6 -15 -9 -5 -9 8 0 22 4 30 9 18 12 2 12 -25 0z"/>
<path d="M3098 849 c-21 -12 -24 -59 -6 -77 15 -15 61 -15 76 0 17 17 15 54
-4 72 -18 18 -41 20 -66 5z m62 -14 c26 -32 -13 -81 -47 -59 -35 22 -23 74 17
74 10 0 23 -7 30 -15z"/>
<path d="M3111 808 c2 -31 2 -31 6 -5 3 16 11 27 20 27 11 0 13 -3 5 -13 -8
-9 -8 -17 0 -27 8 -12 9 -12 4 2 -3 10 -1 20 5 23 14 9 1 25 -22 25 -15 0 -19
-6 -18 -32z"/>
<path d="M2300 700 c0 -17 5 -30 13 -30 9 0 11 -28 10 -112 -1 -72 -6 -112
-13 -111 -5 2 -10 -13 -10 -32 l0 -36 70 2 70 2 0 33 c0 19 -4 34 -10 34 -6 0
-10 43 -10 110 0 67 4 110 10 110 6 0 10 14 10 30 l0 30 -70 0 -70 0 0 -30z"/>
<path d="M2470 700 c0 -16 5 -30 10 -30 6 0 10 -45 10 -116 0 -74 -4 -113 -10
-109 -6 4 -10 -8 -10 -29 l0 -36 210 0 210 0 0 60 c0 54 -2 60 -20 60 -13 0
-24 -10 -30 -25 -15 -38 -40 -32 -40 10 0 28 4 35 20 35 16 0 20 7 20 35 0 28
-4 35 -20 35 -17 0 -20 7 -20 40 0 49 23 55 39 10 7 -20 17 -30 30 -30 19 0
21 6 21 60 l0 60 -105 0 -105 0 0 -30 c0 -16 5 -30 10 -30 6 0 10 -45 10 -116
0 -74 -4 -113 -10 -109 -5 3 -10 17 -10 31 0 34 -31 31 -52 -6 -30 -53 -38
-37 -38 85 0 70 4 115 10 115 6 0 10 14 10 30 l0 30 -70 0 -70 0 0 -30z"/>
<path d="M2910 705 c0 -14 7 -28 15 -31 12 -5 15 -28 15 -115 0 -88 -3 -111
-15 -115 -8 -4 -15 -17 -15 -30 0 -22 4 -24 50 -24 46 0 50 2 50 23 0 13 -5
28 -11 34 -5 5 -9 32 -7 59 l3 49 31 -84 31 -84 49 0 49 0 3 139 c1 76 7 143
12 148 6 6 10 20 10 33 0 21 -4 23 -50 23 -49 0 -50 -1 -50 -29 0 -16 5 -31
11 -33 6 -2 9 -26 7 -58 l-3 -55 -29 88 -29 87 -63 0 c-62 0 -64 -1 -64 -25z"/>
<path d="M1000 237 l0 -54 -30 5 c-40 6 -60 -13 -60 -54 0 -41 37 -71 67 -56
10 5 24 7 31 5 9 -4 12 21 12 101 0 64 -4 106 -10 106 -5 0 -10 -24 -10 -53z
m-5 -101 c0 -36 -26 -56 -49 -37 -16 14 -22 52 -9 65 4 4 19 6 33 4 20 -2 25
-8 25 -32z"/>
<path d="M1210 185 c0 -63 4 -105 10 -105 6 0 10 12 10 28 l1 27 20 -28 c11
-15 27 -27 35 -27 11 0 8 9 -10 33 -26 34 -26 34 -6 52 11 10 18 21 15 23 -3
3 -16 -5 -30 -18 l-25 -23 0 71 c0 41 -4 72 -10 72 -6 0 -10 -42 -10 -105z"/>
<path d="M1710 185 c0 -63 4 -105 10 -105 6 0 10 42 10 105 0 63 -4 105 -10
105 -6 0 -10 -42 -10 -105z"/>
<path d="M2210 236 l0 -55 -34 6 c-29 4 -37 1 -51 -21 -31 -47 15 -112 62 -88
10 5 24 7 31 5 9 -4 12 21 12 101 0 64 -4 106 -10 106 -5 0 -10 -24 -10 -54z
m-5 -86 c7 -22 -10 -60 -28 -60 -31 1 -50 34 -35 63 12 24 55 22 63 -3z"/>
<path d="M2460 185 c0 -59 4 -105 9 -105 6 0 11 19 13 42 2 33 8 44 22 46 24
5 36 -14 36 -55 0 -18 5 -33 10 -33 15 0 12 73 -3 95 -10 12 -22 16 -40 13
-27 -5 -27 -4 -27 48 0 30 -4 54 -10 54 -6 0 -10 -42 -10 -105z"/>
<path d="M2727 283 c-11 -11 -8 -203 3 -203 6 0 10 42 10 105 0 105 -1 111
-13 98z"/>
<path d="M2780 185 c0 -63 4 -105 10 -105 6 0 10 42 10 105 0 63 -4 105 -10
105 -6 0 -10 -42 -10 -105z"/>
<path d="M400 170 c0 -53 4 -90 10 -90 6 0 10 16 10 35 0 27 4 35 18 35 29 0
62 29 62 55 0 33 -26 55 -66 55 l-34 0 0 -90z m64 64 c22 -9 20 -41 -4 -54
-26 -14 -40 -5 -40 24 0 34 12 42 44 30z"/>
<path d="M727 254 c-8 -8 1 -24 14 -24 5 0 9 7 9 15 0 15 -12 20 -23 9z"/>
<path d="M1056 253 c-11 -11 -6 -23 9 -23 8 0 15 4 15 9 0 13 -16 22 -24 14z"/>
<path d="M2622 233 c2 -10 10 -18 18 -18 8 0 16 8 18 18 2 12 -3 17 -18 17
-15 0 -20 -5 -18 -17z m28 -3 c0 -5 -4 -10 -10 -10 -5 0 -10 5 -10 10 0 6 5
10 10 10 6 0 10 -4 10 -10z"/>
<path d="M1318 208 c-6 -36 3 -128 13 -128 5 0 9 20 9 44 0 26 5 47 13 50 10
5 10 7 0 12 -7 3 -13 14 -13 25 0 26 -17 24 -22 -3z"/>
<path d="M526 174 c-22 -21 -20 -60 4 -84 25 -25 42 -25 71 0 27 21 10 27 -22
8 -17 -11 -22 -10 -35 7 -14 19 -13 20 30 23 48 3 53 10 36 43 -13 23 -62 26
-84 3z m51 -22 c-34 -4 -48 5 -27 18 8 5 22 4 34 -3 20 -11 20 -12 -7 -15z"/>
<path d="M640 133 c0 -29 5 -53 10 -53 6 0 10 18 10 40 0 34 4 42 25 50 35 13
31 20 -10 18 l-35 -1 0 -54z"/>
<path d="M730 135 c0 -30 5 -55 10 -55 6 0 10 25 10 55 0 30 -4 55 -10 55 -5
0 -10 -25 -10 -55z"/>
<path d="M792 178 c-7 -7 -12 -27 -12 -45 0 -24 7 -37 26 -50 24 -15 29 -15
53 -2 29 16 41 70 20 95 -14 17 -70 19 -87 2z m73 -42 c0 -36 -26 -56 -49 -37
-16 14 -22 52 -9 65 4 4 19 6 33 4 20 -2 25 -8 25 -32z"/>
<path d="M1059 183 c-7 -54 -3 -103 8 -103 9 0 13 17 13 55 0 30 -4 55 -10 55
-5 0 -10 -3 -11 -7z"/>
<path d="M1113 173 c-4 -11 3 -24 22 -38 30 -25 26 -50 -6 -40 -10 4 -19 2
-19 -4 0 -16 40 -24 55 -11 23 19 18 49 -10 62 -30 14 -33 28 -5 28 11 0 20 5
20 10 0 17 -50 11 -57 -7z"/>
<path d="M1452 178 c-7 -7 -12 -27 -12 -45 0 -42 37 -71 70 -53 19 10 21 9 18
-11 -5 -35 -33 -47 -57 -24 -12 10 -24 15 -29 11 -9 -10 35 -46 58 -46 34 0
50 33 50 106 l0 70 -43 2 c-24 1 -49 -4 -55 -10z m73 -42 c0 -36 -26 -56 -49
-37 -16 14 -22 52 -9 65 4 4 19 6 33 4 20 -2 25 -8 25 -32z"/>
<path d="M1587 172 c-23 -25 -21 -58 4 -83 36 -36 99 -6 99 46 0 48 -70 73
-103 37z m73 -17 c23 -28 -9 -72 -45 -59 -36 14 -24 74 15 74 10 0 23 -7 30
-15z"/>
<path d="M1750 185 c0 -10 51 -107 54 -103 2 1 15 27 30 56 19 37 22 52 13 52
-7 0 -20 -15 -29 -32 l-15 -33 -17 33 c-14 27 -36 44 -36 27z"/>
<path d="M1870 146 c0 -69 39 -97 80 -56 21 21 29 100 10 100 -5 0 -10 -15
-10 -33 0 -18 -6 -42 -14 -52 -21 -29 -46 -3 -46 46 0 22 -4 39 -10 39 -5 0
-10 -20 -10 -44z"/>
<path d="M2000 134 c0 -30 5 -54 10 -54 6 0 10 20 10 45 0 41 2 45 25 45 23 0
25 -4 25 -45 0 -25 5 -45 11 -45 6 0 9 21 7 53 l-3 52 -42 1 -43 2 0 -54z"/>
<path d="M2260 171 c-29 -56 14 -116 65 -93 14 7 25 16 25 22 0 13 -6 13 -29
-2 -15 -9 -23 -9 -35 1 -27 22 -18 31 29 31 49 0 53 5 29 38 -20 28 -69 30
-84 3z m70 -12 c0 -5 -15 -9 -32 -9 -31 1 -32 2 -15 15 19 14 47 10 47 -6z"/>
<path d="M2380 133 c0 -29 5 -53 10 -53 6 0 10 18 10 40 0 34 4 42 25 50 35
13 31 20 -10 18 l-35 -1 0 -54z"/>
<path d="M2590 171 c-5 -11 -10 -31 -10 -45 0 -31 41 -62 67 -51 10 5 24 7 31
6 8 -1 12 14 12 52 l0 54 -45 1 c-35 2 -46 -2 -55 -17z m75 -35 c0 -38 -28
-57 -51 -34 -11 11 -15 25 -10 43 5 21 12 26 34 23 22 -2 27 -8 27 -32z"/>
</g>
</svg>
